<svg xmlns="http://www.w3.org/2000/svg" xmlns:xlink="http://www.w3.org/1999/xlink" width="385px" height="51px" viewBox="0 0 385 51"><g><path d="M0.524 50 L10.604 50 L10.604 30.2 L19.172 30.2 C23.492 35 28.3 50.7 40.4 50.7 C43.58 50.7 47 49.9 49 48.8 L47.9 40.9 C46.316 41.6 44.2 41.9 42.4 41.9 C35.588 41.9 31.4 30.1 27.8 26.1 L44.012 2.6 L44.012 1 L33.572 1 L20.252 21.4 L10.604 21.4 L10.604 1 L0.524 1 L0.524 50 Z M48.148 25.6 C48.148 39.9 58.9 50.7 73.3 50.7 C87.748 50.7 98.5 39.9 98.5 25.6 C98.548 11.1 87.7 0.3 73.3 0.3 C58.948 0.3 48.1 11.1 48.1 25.6 L48.148 25.6 Z M58.084 25.6 C58.084 16.6 64.5 9.9 73.3 9.9 C82.348 9.9 88.6 16.6 88.6 25.6 C88.612 34.4 82.3 41.3 73.3 41.3 C64.492 41.3 58.1 34.4 58.1 25.6 L58.084 25.6 Z M145.956 50 L156.9 50 L176.412 1 L165.396 1 L151.284 37 L138.18 1 L127.236 1 L133.284 17.1 L124.212 38.7 L109.812 1 L98.94 1 L117.876 50 L128.82 50 L137.676 29 L145.956 50 Z M215.9 50 L215.9 41.2 L190.484 41.2 L190.484 1 L180.404 1 L180.404 50 L215.9 50 Z M228.964 1 L218.884 1 L218.884 29.3 C218.884 41.8 226.6 50.8 241.1 50.8 C255.676 50.8 263.5 40.9 263.5 29.3 L263.452 1 L253.372 1 L253.372 28.6 C253.372 36.2 249.3 41.4 241.1 41.4 C232.924 41.4 229 36.5 229 28.7 L228.964 1 Z M317.772 50 L327.852 50 L327.852 1 L318.78 1 L300.492 22.9 L282.204 1 L273.132 1 L273.132 50 L283.212 50 L283.212 17 L299.556 36.7 L301.356 36.7 L317.772 17 L317.772 50 Z M375.692 50 L384.476 50 L384.476 1 L374.396 1 L374.396 34 L346.892 1 L338.108 1 L338.108 50 L348.188 50 L348.188 17.1 L375.692 50 Z" fill="#ffffff"/></g></svg>